<?xml version="1.0" encoding="UTF-8"?>
<svg width="277px" height="24px" viewBox="0 0 277 24" version="1.1" xmlns="http://www.w3.org/2000/svg" xmlns:xlink="http://www.w3.org/1999/xlink">
    <title>Group</title>
    <g id="Page-1" stroke="none" stroke-width="1" fill="none" fill-rule="evenodd">
        <g id="Group" transform="translate(0.000000, 0.000000)" fill="#09CECE" fill-rule="nonzero">
            <path d="M42.6762,22.9228468 L49.031,5.38320679 C49.1281,5.11636679 49.1735,4.80397679 48.5451,4.40046679 C47.7027,3.94758679 46.7526,3.73595679 45.7985,3.78869679 L34.3327,3.78869679 L27.3884,22.9228468 L21.2927,22.9228468 L28.2241,3.78869679 L13.027,3.78869679 L6.09567,22.9228468 L0,22.9228468 L8.29814,0.0204467901 L46.6471,0.0204467901 C49.452,0.0204467901 51.6739,0.52807879 53.2545,1.51732679 C55.457,2.90357679 55.3987,4.62825679 54.9582,5.83226679 L48.7654,22.9228468 L42.6762,22.9228468 Z" id="Path"></path>
            <path d="M76.0893,22.8251468 C73.3621,22.8251468 71.1726,22.3110468 69.6114,21.2957468 C67.396,19.8834468 67.4413,18.1848468 67.8624,17.0133468 L72.073,5.38969679 C72.6366,3.83423679 74.1135,2.52608679 76.452,1.48477679 C78.8073,0.48078779 81.3433,-0.0243577099 83.9016,0.000902690064 L97.1294,0.000902690064 C99.8501,0.000902690064 102.04,0.51504479 103.607,1.53032679 C105.816,2.94911679 105.777,4.64124679 105.35,5.81272679 L101.139,17.4428468 C100.576,18.9918468 99.1051,20.2999468 96.7602,21.3478468 C94.4049,22.3517468 91.8689,22.8569468 89.3106,22.8316468 L76.0893,22.8251468 Z M82.9817,3.78867679 C81.8371,3.77355679 80.7015,3.99508679 79.6456,4.43949679 C78.931,4.66395679 78.333,5.16190679 77.9808,5.82574679 L73.7702,17.4559468 C73.673,17.7227468 73.6212,18.0416468 74.2496,18.4386468 C75.0838,18.8947468 76.0286,19.1067468 76.9767,19.0504468 L90.224,19.0504468 C91.3687,19.0655468 92.5042,18.8440468 93.5601,18.3995468 C94.2739,18.1773468 94.872,17.6816468 95.2249,17.0198468 L99.442,5.38317679 C99.5327,5.11634679 99.5845,4.80395679 98.9562,4.40044679 C98.1208,3.94725679 97.1768,3.73549679 96.229,3.78867679 L82.9817,3.78867679 Z" id="Shape"></path>
            <path d="M116.051,23.0204468 L124.381,0.0204467901 L145.842,0.0204467901 C148.563,0.0204467901 150.753,0.53458879 152.32,1.54986679 C154.536,2.96214679 154.497,4.66079679 154.069,5.83226679 L153.266,8.03854679 C152.754,9.46384679 151.478,10.6743468 149.477,11.6441468 C150.062,12.0586468 150.489,12.6600468 150.691,13.3502468 C150.892,14.0405468 150.854,14.7788468 150.584,15.4448468 L149.82,17.6576468 C149.256,19.2066468 147.786,20.5147468 145.441,21.5626468 C143.086,22.5665468 140.55,23.0717468 137.991,23.0464468 L116.051,23.0204468 Z M138.872,19.2521468 C140.017,19.2673468 141.153,19.0457468 142.208,18.6013468 C142.922,18.3790468 143.52,17.8834468 143.873,17.2216468 L144.67,15.0153468 C144.767,14.7550468 144.813,14.4361468 144.191,14.0391468 C143.353,13.5869468 142.407,13.3753468 141.457,13.4273468 L125.625,13.4273468 L123.513,19.2847468 L138.872,19.2521468 Z M142.351,9.65258679 C143.496,9.67070679 144.632,9.44906679 145.687,9.00176679 C146.402,8.78139679 147.001,8.28521679 147.352,7.62202679 L148.155,5.40272679 C148.252,5.13588679 148.304,4.81699679 147.676,4.41348679 C146.84,3.96029679 145.896,3.74853679 144.949,3.80171679 L129.091,3.80171679 L126.966,9.65909679 L142.351,9.65258679 Z" id="Shape"></path>
            <polygon id="Path" points="164.829 22.9228468 173.121 0.0204467901 179.216 0.0204467901 170.918 22.9228468"></polygon>
            <path d="M198.203,22.9228468 C195.476,22.9228468 193.286,22.4086468 191.725,21.3933468 C189.51,19.9811468 189.549,18.2889468 189.976,17.1174468 L196.143,0.0855102901 L202.239,0.0855102901 L195.91,17.5665468 C195.813,17.8268468 195.761,18.1457468 196.389,18.5427468 C197.226,18.9994468 198.173,19.2113468 199.123,19.1545468 L212.344,19.1545468 C213.489,19.1696468 214.624,18.9481468 215.68,18.5037468 C216.395,18.2833468 216.994,17.7871468 217.345,17.1239468 L223.512,0.0920247901 L229.608,0.0920247901 L223.279,17.5730468 C222.715,19.1220468 221.245,20.4301468 218.9,21.4454468 C216.545,22.4501468 214.009,22.9553468 211.45,22.9293468 L198.203,22.9228468 Z" id="Path"></path>
            <path d="M238.878,23.0204468 L240.238,19.2522468 L260.287,19.2522468 C263.034,19.2522468 264.725,18.7575468 265.049,17.8659468 L266.435,14.0391468 C266.513,13.8308468 266.467,13.7657468 266.435,13.7332468 C266.402,13.7007468 265.845,13.0824468 262.976,13.0824468 L252.171,13.0824468 C249.43,13.0824468 247.26,12.6984468 245.693,11.9434468 C243.102,10.7069468 243.302,8.89113679 243.659,7.91490679 L244.812,4.73239679 C245.375,3.17693679 246.865,1.96640679 249.249,1.12034679 C251.543,0.34267079 253.954,-0.0337512099 256.375,0.00744429006 L276.955,0.00744429006 L275.588,3.77568679 L255.507,3.77568679 C252.76,3.77568679 251.063,4.27031679 250.739,5.16844679 L249.579,8.37699679 C249.502,8.59176679 249.579,8.65684679 249.579,8.68938679 C249.683,8.83907679 250.227,9.34020679 253.032,9.34020679 L263.87,9.34020679 C266.61,9.34020679 268.78,9.72419679 270.315,10.4791468 C272.906,11.7157468 272.705,13.5249468 272.356,14.4947468 L270.956,18.3085468 C270.399,19.8574468 268.903,21.0680468 266.525,21.9140468 C264.22,22.6920468 261.799,23.0663468 259.367,23.0204468 L238.878,23.0204468 Z" id="Path"></path>
        </g>
    </g>
</svg>