<?xml version="1.0" encoding="UTF-8"?>
<svg width="202px" height="36px" viewBox="0 0 202 36" version="1.1" xmlns="http://www.w3.org/2000/svg" xmlns:xlink="http://www.w3.org/1999/xlink">
    <title>logo</title>
    <g id="Page-1" stroke="none" stroke-width="1" fill="none" fill-rule="evenodd">
        <g id="logo" transform="translate(0.000000, -0.000000)" fill="#FFFFFF" fill-rule="nonzero">
            <path d="M130.729222,0 L117.645411,35.9890134 L132.377205,35.9890134 L141.374409,11.0736633 L182.361129,11.0736633 C182.71623,11.0713091 183.066426,11.1549835 183.38229,11.3177218 C183.698153,11.4803621 183.968893,11.7170635 184.172929,12.0075206 C184.376965,12.2979776 184.508412,12.6336561 184.554516,12.9856183 C184.599639,13.3376785 184.560402,13.6955264 184.437784,14.0286544 L176.505883,36 L191.150373,36 L201.1913,8.2942217 C201.527763,7.36388606 201.635667,6.36612043 201.505202,5.38527605 C201.375717,4.40442187 201.010807,3.46925999 200.442841,2.65898189 C199.874875,1.84869398 199.120531,1.18713657 198.243568,0.730051717 C197.365625,0.272970784 196.390568,0.0338436923 195.401778,0.0329890952 L130.729222,0 Z" id="Path"></path>
            <path d="M39.7570097,7.27263879 L29.3535262,35.9890268 L95.2125321,35.9890268 C97.4739969,35.9925448 99.6814117,35.2982338 101.533431,34.000545 C103.38545,32.7028562 104.792122,30.8650605 105.561181,28.7383772 L115.953285,0.0219926485 L50.1054622,0.0219926485 C47.8439974,0.018446525 45.6365826,0.712823425 43.7844651,2.01047102 C41.9323477,3.30812057 40.5258724,5.14591628 39.7570097,7.27263879 Z M89.1374573,24.849627 L48.0841322,24.849627 L52.0388998,13.9187889 C52.3466215,13.0677232 52.9095844,12.3324087 53.6508826,11.813294 C54.3920827,11.2942773 55.2756176,11.0167687 56.180537,11.0186231 L97.2338621,11.0186231 L93.2789964,21.9492744 C92.9804956,22.81064 92.4215546,23.5577257 91.6794716,24.0871404 C90.9373886,24.6166531 90.0490471,24.9022055 89.1374573,24.9043636 L89.1374573,24.849627 Z" id="Shape"></path>
            <path d="M0,35.9890152 L6.97585465,35.9890152 C9.235436,35.9902887 11.4404377,35.2948005 13.2903971,33.9973079 C15.1403565,32.6998153 16.5451642,30.8632948 17.3134384,28.7383772 L27.7167256,0.0219926827 L20.7409494,0.0219926827 C18.4781114,0.019255214 16.2697156,0.715304228 14.4175,2.01502259 C12.5651864,3.31475174 11.1594958,5.15485267 10.3923988,7.28363515 L0,35.9890152 Z" id="Path"></path>
        </g>
    </g>
</svg>